<svg width="49" height="43" viewBox="0 0 49 43" fill="none" xmlns="http://www.w3.org/2000/svg">
<path d="M18.1576 2.31859C18.2609 2.14606 18.3293 1.95485 18.3587 1.7559C18.3882 1.55695 18.3782 1.35414 18.3293 1.15906C18.2804 0.963973 18.1935 0.780433 18.0737 0.618917C17.9538 0.457401 17.8033 0.321072 17.6308 0.217713C17.4583 0.114355 17.2671 0.0459909 17.0681 0.0165253C16.8692 -0.0129402 16.6664 -0.00293048 16.4713 0.0459828C16.2762 0.094896 16.0927 0.181755 15.9311 0.301601C15.7696 0.421446 15.6333 0.571931 15.5299 0.744463L6.78956 15.3128H1.53125C1.12514 15.3128 0.735658 15.4741 0.448493 15.7613C0.161328 16.0484 0 16.4379 0 16.844L0 19.9065C0 20.3126 0.161328 20.7021 0.448493 20.9893C0.735658 21.2764 1.12514 21.4378 1.53125 21.4378H3.43919L9.08644 41.2093C9.2238 41.6902 9.51437 42.1131 9.91401 42.4138C10.3136 42.7145 10.8005 42.8765 11.3006 42.8753H37.7055C38.2051 42.8758 38.6913 42.7135 39.0903 42.4128C39.4893 42.1122 39.7794 41.6897 39.9166 41.2093L45.5608 21.4378H47.4688C47.8749 21.4378 48.2643 21.2764 48.5515 20.9893C48.8387 20.7021 49 20.3126 49 19.9065V16.844C49 16.4379 48.8387 16.0484 48.5515 15.7613C48.2643 15.4741 47.8749 15.3128 47.4688 15.3128H42.2104L33.4731 0.744463C33.3698 0.571931 33.2334 0.421446 33.0719 0.301601C32.9104 0.181755 32.7269 0.094896 32.5318 0.0459828C32.3367 -0.00293048 32.1339 -0.0129402 31.9349 0.0165253C31.736 0.0459909 31.5448 0.114355 31.3723 0.217713C31.1997 0.321072 31.0492 0.457401 30.9294 0.618917C30.8095 0.780433 30.7227 0.963973 30.6738 1.15906C30.6249 1.35414 30.6148 1.55695 30.6443 1.7559C30.6738 1.95485 30.7421 2.14606 30.8455 2.31859L38.6396 15.3128H10.3604L18.1576 2.31859ZM12.25 27.5628C12.25 26.7505 12.5727 25.9716 13.147 25.3973C13.7213 24.8229 14.5003 24.5003 15.3125 24.5003C16.1247 24.5003 16.9037 24.8229 17.478 25.3973C18.0523 25.9716 18.375 26.7505 18.375 27.5628V33.6878C18.375 34.5 18.0523 35.279 17.478 35.8533C16.9037 36.4276 16.1247 36.7503 15.3125 36.7503C14.5003 36.7503 13.7213 36.4276 13.147 35.8533C12.5727 35.279 12.25 34.5 12.25 33.6878V27.5628ZM21.4375 27.5628C21.4375 26.7505 21.7602 25.9716 22.3345 25.3973C22.9088 24.8229 23.6878 24.5003 24.5 24.5003C25.3122 24.5003 26.0912 24.8229 26.6655 25.3973C27.2398 25.9716 27.5625 26.7505 27.5625 27.5628V33.6878C27.5625 34.5 27.2398 35.279 26.6655 35.8533C26.0912 36.4276 25.3122 36.7503 24.5 36.7503C23.6878 36.7503 22.9088 36.4276 22.3345 35.8533C21.7602 35.279 21.4375 34.5 21.4375 33.6878V27.5628ZM33.6875 24.5003C34.4997 24.5003 35.2787 24.8229 35.853 25.3973C36.4273 25.9716 36.75 26.7505 36.75 27.5628V33.6878C36.75 34.5 36.4273 35.279 35.853 35.8533C35.2787 36.4276 34.4997 36.7503 33.6875 36.7503C32.8753 36.7503 32.0963 36.4276 31.522 35.8533C30.9477 35.279 30.625 34.5 30.625 33.6878V27.5628C30.625 26.7505 30.9477 25.9716 31.522 25.3973C32.0963 24.8229 32.8753 24.5003 33.6875 24.5003Z" fill="#AD9A58"/>
</svg>
