<svg width="48" height="48" viewBox="0 0 48 48" fill="none" xmlns="http://www.w3.org/2000/svg">
<path d="M24 24C20.7 24 17.875 22.825 15.525 20.475C13.175 18.125 12 15.3 12 12C12 8.7 13.175 5.875 15.525 3.525C17.875 1.175 20.7 0 24 0C27.3 0 30.125 1.175 32.475 3.525C34.825 5.875 36 8.7 36 12C36 15.3 34.825 18.125 32.475 20.475C30.125 22.825 27.3 24 24 24ZM6 48C4.35 48 2.938 47.413 1.764 46.239C0.587999 45.063 0 43.65 0 42V39.6C0 37.9 0.438001 36.337 1.314 34.911C2.188 33.487 3.35 32.4 4.8 31.65C7.9 30.1 11.05 28.937 14.25 28.161C17.45 27.387 20.7 27 24 27C27.3 27 30.55 27.387 33.75 28.161C36.95 28.937 40.1 30.1 43.2 31.65C44.65 32.4 45.812 33.487 46.686 34.911C47.562 36.337 48 37.9 48 39.6V42C48 43.65 47.413 45.063 46.239 46.239C45.063 47.413 43.65 48 42 48H6Z" fill="#AD9A58"/>
</svg>
