<svg width="48" height="48" viewBox="0 0 48 48" fill="none" xmlns="http://www.w3.org/2000/svg">
<path d="M17.787 2.59572C17.8882 2.40257 17.9552 2.18851 17.9841 1.96578C18.0129 1.74305 18.0031 1.516 17.9552 1.2976C17.9073 1.07919 17.8222 0.873715 17.7048 0.692894C17.5874 0.512072 17.44 0.359448 17.271 0.243736C17.102 0.128023 16.9147 0.051488 16.7198 0.0185005C16.5249 -0.0144869 16.3262 -0.00328075 16.1351 0.0514789C15.944 0.106239 15.7642 0.20348 15.606 0.33765C15.4478 0.47182 15.3142 0.640292 15.213 0.833446L6.651 17.1431H1.5C1.10218 17.1431 0.720644 17.3237 0.43934 17.6452C0.158035 17.9666 0 18.4027 0 18.8573L0 22.2859C0 22.7405 0.158035 23.1766 0.43934 23.4981C0.720644 23.8195 1.10218 24.0002 1.5 24.0002H3.369L8.901 46.1349C9.03556 46.6732 9.3202 47.1467 9.71168 47.4833C10.1032 47.82 10.5801 48.0014 11.07 48H36.936C37.4254 48.0006 37.9016 47.8189 38.2925 47.4823C38.6834 47.1457 38.9676 46.6727 39.102 46.1349L44.631 24.0002H46.5C46.8978 24.0002 47.2794 23.8195 47.5607 23.4981C47.842 23.1766 48 22.7405 48 22.2859V18.8573C48 18.4027 47.842 17.9666 47.5607 17.6452C47.2794 17.3237 46.8978 17.1431 46.5 17.1431H41.349L32.79 0.833446C32.6888 0.640292 32.5552 0.47182 32.397 0.33765C32.2388 0.20348 32.059 0.106239 31.8679 0.0514789C31.6768 -0.00328075 31.4781 -0.0144869 31.2832 0.0185005C31.0883 0.051488 30.901 0.128023 30.732 0.243736C30.563 0.359448 30.4156 0.512072 30.2982 0.692894C30.1808 0.873715 30.0957 1.07919 30.0478 1.2976C29.9999 1.516 29.9901 1.74305 30.0189 1.96578C30.0478 2.18851 30.1147 2.40257 30.216 2.59572L37.851 17.1431H10.149L17.787 2.59572ZM12 30.8572C12 29.9479 12.3161 29.0759 12.8787 28.4329C13.4413 27.7899 14.2044 27.4287 15 27.4287C15.7956 27.4287 16.5587 27.7899 17.1213 28.4329C17.6839 29.0759 18 29.9479 18 30.8572V37.7143C18 38.6237 17.6839 39.4957 17.1213 40.1387C16.5587 40.7817 15.7956 41.1429 15 41.1429C14.2044 41.1429 13.4413 40.7817 12.8787 40.1387C12.3161 39.4957 12 38.6237 12 37.7143V30.8572ZM21 30.8572C21 29.9479 21.3161 29.0759 21.8787 28.4329C22.4413 27.7899 23.2043 27.4287 24 27.4287C24.7956 27.4287 25.5587 27.7899 26.1213 28.4329C26.6839 29.0759 27 29.9479 27 30.8572V37.7143C27 38.6237 26.6839 39.4957 26.1213 40.1387C25.5587 40.7817 24.7956 41.1429 24 41.1429C23.2043 41.1429 22.4413 40.7817 21.8787 40.1387C21.3161 39.4957 21 38.6237 21 37.7143V30.8572ZM33 27.4287C33.7956 27.4287 34.5587 27.7899 35.1213 28.4329C35.6839 29.0759 36 29.9479 36 30.8572V37.7143C36 38.6237 35.6839 39.4957 35.1213 40.1387C34.5587 40.7817 33.7956 41.1429 33 41.1429C32.2043 41.1429 31.4413 40.7817 30.8787 40.1387C30.3161 39.4957 30 38.6237 30 37.7143V30.8572C30 29.9479 30.3161 29.0759 30.8787 28.4329C31.4413 27.7899 32.2043 27.4287 33 27.4287Z" fill="#AD9A58"/>
</svg>
