<svg width="48" height="48" viewBox="0 0 48 48" fill="none" xmlns="http://www.w3.org/2000/svg">
<path d="M45.6 0H2.4C1.76348 0 1.15303 0.252856 0.702944 0.702944C0.252856 1.15303 0 1.76348 0 2.4V45.6C0 46.2365 0.252856 46.847 0.702944 47.2971C1.15303 47.7471 1.76348 48 2.4 48H45.6C46.2365 48 46.847 47.7471 47.2971 47.2971C47.7471 46.847 48 46.2365 48 45.6V2.4C48 1.76348 47.7471 1.15303 47.2971 0.702944C46.847 0.252856 46.2365 0 45.6 0ZM37.7256 20.94C37.464 20.9656 37.2013 20.9792 36.9384 20.9808C35.5145 20.9827 34.1125 20.6297 32.8592 19.9538C31.6059 19.2779 30.5408 18.3004 29.76 17.1096V30.2928C29.7605 32.2207 29.1892 34.1054 28.1184 35.7085C27.0477 37.3117 25.5255 38.5613 23.7445 39.2992C21.9635 40.0372 20.0036 40.2304 18.1128 39.8544C16.2219 39.4785 14.4851 38.5501 13.1219 37.1869C11.7587 35.8237 10.8303 34.0869 10.4544 32.196C10.0784 30.3052 10.2716 28.3453 11.0096 26.5643C11.7475 24.7833 12.9971 23.2611 14.6003 22.1904C16.2034 21.1196 18.0881 20.5483 20.016 20.5488C20.22 20.5488 20.4168 20.568 20.6184 20.58V25.38C19.9469 25.2987 19.2659 25.3555 18.6172 25.547C17.9685 25.7385 17.3658 26.0607 16.8462 26.4937C16.3266 26.9267 15.901 27.4613 15.5956 28.0648C15.2902 28.6684 15.1114 29.3279 15.0703 30.0031C15.0291 30.6782 15.1265 31.3546 15.3563 31.9907C15.5862 32.6269 15.9437 33.2092 16.4069 33.7021C16.8701 34.195 17.4293 34.588 18.0499 34.8568C18.6705 35.1257 19.3396 35.2648 20.016 35.2656C21.3508 35.2898 22.6418 34.7891 23.6112 33.8712C24.5807 32.9534 25.1512 31.6917 25.2 30.3576L25.248 7.9632H29.8416C30.0513 9.95869 30.9559 11.8169 32.3971 13.213C33.8383 14.609 35.7244 15.4539 37.7256 15.6V20.94Z" fill="#AD9A58"/>
</svg>
